<svg width="214" height="136" viewBox="0 0 214 136" fill="none" xmlns="http://www.w3.org/2000/svg">
    <g clip-path="url(#clip0_10188_871)">
        <mask id="mask0_10188_871" style="mask-type:luminance" maskUnits="userSpaceOnUse" x="106" y="89" width="96"
            height="25">
            <path
                d="M191.015 91.0385C184.99 92.2657 177.85 93.7161 169.593 95.5012C161.337 97.2862 153.415 98.9597 145.939 100.522C138.464 102.084 133.108 103.311 129.761 104.092C124.405 105.319 120.166 106.435 116.93 107.439C113.694 108.443 110.682 109.559 108.004 110.786C107 111.232 106.33 111.678 106.107 112.236C105.884 112.794 106.107 113.129 106.777 113.463C106.888 113.575 107 113.575 107.111 113.575C107.223 113.575 107.446 113.575 107.781 113.463C108.115 113.352 108.45 113.24 109.008 113.017C109.901 112.571 110.793 112.236 111.797 111.901C112.802 111.567 114.14 111.121 115.814 110.563C118.046 109.893 120.054 109.224 121.951 108.666C123.847 108.108 126.525 107.55 129.761 106.769C131.323 106.435 132.885 105.988 134.335 105.654C135.786 105.319 137.906 104.873 140.695 104.315C143.485 103.757 147.501 102.865 152.857 101.749C158.212 100.633 165.576 99.0713 175.06 97.0631C181.643 95.7243 186.887 94.6086 190.569 93.8277C194.251 93.0467 196.817 92.4889 198.379 92.1542C199.941 91.8195 200.722 91.5963 200.834 91.4848C201.392 91.1501 201.615 90.8154 201.503 90.2575C201.392 89.8113 201.169 89.4766 200.611 89.2534C200.164 89.2534 196.929 89.8113 191.015 91.0385Z"
                fill="white" />
        </mask>
        <g mask="url(#mask0_10188_871)">
            <path d="M111.462 136L207.416 112.013L196.036 66.7168L100.193 90.5921L111.462 136Z" fill="black" />
        </g>
        <path
            d="M206.413 88.9183C206.636 88.3604 207.194 87.9142 208.198 87.691C209.76 87.2448 210.988 87.0217 211.769 86.7985C212.55 86.687 213.108 86.687 213.442 86.7985C213.777 86.9101 213.889 87.2448 214 87.5795C214 87.9142 214 88.2489 213.889 88.3604C213.777 88.5836 213.442 88.6951 212.996 88.9183C212.55 89.0298 211.769 89.253 210.876 89.3646C210.207 89.5877 209.649 89.6993 209.091 89.8108C208.645 89.9224 208.422 89.9224 208.198 90.034C207.975 90.034 207.864 90.034 207.752 90.034C207.641 90.034 207.529 90.034 207.417 90.034C206.525 89.9224 206.302 89.4761 206.413 88.9183Z"
            fill="black" />
        <mask id="mask1_10188_871" style="mask-type:luminance" maskUnits="userSpaceOnUse" x="5" y="6" width="100"
            height="79">
            <path
                d="M102.202 7.02855C101.979 7.25168 101.533 7.92108 100.64 11.7144C97.9626 22.3132 95.0617 31.0154 91.9376 37.821C88.8135 44.515 84.5736 51.209 79.3296 57.5683C73.8625 64.2623 68.5069 69.7291 63.2629 73.5224C55.6758 79.1007 49.2045 81.8899 43.9605 81.8899C40.6133 81.8899 38.2702 80.7742 36.8197 78.4313C36.0387 77.2041 35.5924 75.5306 35.5924 73.634C35.5924 71.9605 36.0387 69.3944 36.9313 66.0474C37.8239 62.5888 40.7248 57.4568 45.411 50.6512C46.192 49.5355 46.5267 48.643 46.5267 48.0852C46.5267 47.7505 46.4151 46.9695 45.2994 46.9695C45.0763 46.9695 44.8531 47.0811 44.5184 47.3042C44.0721 47.6389 43.5142 48.0852 42.8448 48.7546L35.3693 56.0064L30.9063 60.4691C23.4308 67.8325 17.9636 73.0761 14.728 75.8653C10.7113 79.3239 9.03768 79.9933 8.25665 79.9933C8.14508 79.9933 8.14508 79.547 8.14508 79.4354C8.14508 77.8735 9.03768 75.1959 10.7113 71.6258C14.0585 64.7086 19.0794 56.8989 25.6623 48.7546C32.2452 40.4986 39.0512 33.3583 45.8573 27.5569C46.8614 26.6643 47.3077 26.1065 47.3077 25.6602C47.3077 25.4371 47.1962 25.1024 46.8615 24.8792C46.6383 24.6561 46.4151 24.5445 46.0804 24.5445H45.7457C45.5226 24.5445 45.1878 24.6561 42.0637 27.3337C35.1461 33.3583 28.5632 40.387 22.4266 48.3083C16.29 56.2295 11.6039 63.4814 8.36823 69.8407C6.24831 74.0802 5.24414 77.3157 5.24414 79.6586C5.24414 81.6668 6.24831 82.7825 8.14508 82.894C9.26083 82.894 10.7113 82.2246 12.7196 80.9974C14.5048 79.7701 17.2942 77.4272 20.9762 73.9687C24.6581 70.5101 29.679 65.6012 36.0387 59.3534L37.266 58.1262C37.4892 57.903 37.6008 57.7915 37.8239 57.5683C34.4767 63.7045 32.8031 69.1713 32.8031 73.8571C32.8031 76.981 33.5841 79.547 35.1461 81.4436C36.5966 83.2287 38.7165 84.3444 41.5059 84.6791C42.0637 84.7907 42.7332 84.7907 43.2911 84.7907C47.3077 84.7907 51.7707 83.5634 56.4569 80.9974C63.0398 77.5388 69.7342 72.1836 76.3171 65.2665C82.9 58.3493 88.5903 50.3165 93.2765 41.2796C96.7353 34.9203 100.194 24.9908 103.541 11.4912C103.988 9.81772 104.211 8.70205 104.211 8.14422C104.322 7.25168 103.764 6.69385 102.983 6.69385C102.76 6.69385 102.537 6.80541 102.202 7.02855Z"
                fill="white" />
        </mask>
        <g mask="url(#mask1_10188_871)">
            <path d="M0 84.3446L103.876 91.4848L109.566 7.14028L5.80188 0L0 84.3446Z" fill="black" />
        </g>
        <mask id="mask2_10188_871" style="mask-type:luminance" maskUnits="userSpaceOnUse" x="72" y="47" width="108"
            height="72">
            <path
                d="M135.563 85.0141C135.563 84.7909 135.675 84.3447 135.898 83.7868C136.567 82.3364 137.571 80.8861 138.91 79.5473C139.914 78.5432 141.03 77.6506 142.146 76.8697C143.485 75.9771 144.489 75.5309 145.27 75.5309C145.828 75.5309 146.163 75.754 146.274 76.4234C146.274 76.7581 145.047 77.9853 142.592 80.1051C140.138 82.3365 138.352 83.7868 137.237 84.4562C136.456 85.0141 135.898 85.2372 135.675 85.2372C135.563 85.1256 135.563 85.1256 135.563 85.0141ZM130.989 47.6392C126.079 47.6392 119.385 50.6515 111.128 56.3414C105.661 60.2462 100.417 64.8205 95.6194 69.9525C90.8217 75.0846 86.6934 80.4398 83.0114 85.795C79.4411 91.1502 76.6517 96.2823 74.8665 101.08C73.3045 105.096 72.5234 108.666 72.5234 111.567C72.5234 112.013 72.635 113.129 72.8582 115.026C73.0813 116.922 74.8665 118.149 78.1022 118.707C78.4369 118.707 78.8832 118.819 79.3295 118.819H79.4411C83.2346 118.819 88.367 117.034 94.9499 113.798C98.855 111.79 103.43 109.001 108.674 105.542C113.918 101.972 121.728 96.3939 131.881 88.6958C132.662 88.1379 133.22 87.6917 133.666 87.357C134.113 87.6917 134.559 87.8032 135.34 87.8032C136.902 87.6917 138.799 86.7991 141.03 85.1256C141.142 85.0141 141.588 84.6794 142.258 84.1215L142.815 83.7868C142.815 83.7868 142.927 83.8984 142.927 84.1215V85.0141C143.039 86.9107 143.931 88.1379 145.493 88.6958C145.828 88.8073 146.163 88.8073 146.609 88.8073C147.502 88.8073 148.506 88.4726 149.733 88.0264C149.956 87.9148 150.291 87.8032 150.514 87.5801C150.737 87.6917 150.96 87.8032 151.184 87.8032H151.518C151.741 87.8032 152.746 86.7991 154.531 85.0141C156.428 83.6753 158.213 82.2249 159.998 80.663L160.779 80.1051C161.448 79.5473 161.895 79.101 162.453 78.6547C162.453 78.8779 162.341 79.101 162.341 79.3241C162.229 79.6588 162.229 79.9935 162.118 80.3282C161.895 81.7786 161.783 82.8943 161.783 83.7868C161.895 85.9066 162.676 87.0223 164.349 86.9107C167.027 86.7991 171.825 83.6753 178.631 77.4275C179.523 76.535 179.97 75.8656 179.97 75.4193L179.858 75.0846C179.635 74.5268 179.3 74.3036 178.854 74.3036C178.296 74.3036 177.627 74.7499 176.846 75.4193C174.837 77.0928 172.717 78.7663 170.486 80.5514C167.473 82.8943 165.465 84.1215 164.684 84.1215C164.461 84.1215 164.349 84.01 164.349 83.6753C164.349 83.1174 164.461 82.2249 164.684 80.8861C165.019 79.5473 165.13 78.4316 165.019 77.4275C164.907 75.6424 164.349 74.8615 163.122 74.8615C161.56 74.973 158.994 76.6465 155.312 80.1051V80.2167V80.1051C155.312 79.9935 155.535 79.3241 156.093 78.0969C156.762 76.8697 157.097 75.8656 157.097 75.3077C157.097 74.7499 156.651 74.4152 155.87 74.4152C155.535 74.4152 155.312 74.5268 155.2 74.8615C154.865 75.4193 154.308 76.4234 153.638 77.8738L151.965 81.3324C151.407 82.448 150.96 83.4521 150.626 84.2331C148.952 85.3488 147.613 85.9066 146.832 85.9066C146.051 85.9066 145.605 85.5719 145.605 84.7909C145.605 84.6794 145.605 84.1215 145.716 83.3405C145.828 82.5596 146.832 80.8861 148.84 78.32C149.621 77.4275 149.956 76.7581 149.956 76.2003C149.956 75.754 149.621 75.4193 149.175 75.3077C149.064 75.3077 148.952 75.1962 148.84 75.0846C148.729 74.973 148.617 74.8615 148.506 74.6383C147.725 73.5227 146.609 73.0764 145.158 73.0764C142.481 73.188 139.803 74.7499 136.902 77.6506C134.67 80.3282 133.332 82.5596 133.108 84.3447C132.551 84.6794 131.435 85.5719 129.426 86.9107C116.038 96.8401 106.219 103.757 99.7476 107.774C93.2763 111.79 87.9207 114.245 83.5693 115.249C82.2304 115.583 81.0031 115.807 79.8874 115.807C78.2137 115.807 76.9864 115.472 76.2054 114.691C75.4244 113.91 74.9781 112.683 74.9781 111.009C74.9781 110.898 74.9781 109.447 75.0897 107.104C75.0897 104.761 78.3253 98.5136 84.4619 88.6958C88.9249 81.8902 94.0573 75.4193 99.8592 69.6178C105.661 63.8164 111.463 59.019 117.153 55.4488C122.62 52.1018 127.195 50.3168 130.877 50.3168C131.993 50.3168 132.327 50.5399 132.439 50.6515C132.551 50.763 132.551 50.763 132.551 50.8746C132.551 50.9862 132.439 51.544 130.989 52.8828C129.984 53.8869 127.53 55.4488 123.848 57.457C120.166 59.4652 115.814 61.4734 111.017 63.3701C110.124 63.8164 109.678 64.2626 109.678 64.8205C109.678 65.1552 109.789 65.3783 110.012 65.6014C110.236 65.8246 110.57 65.9361 110.794 65.9361C111.017 65.9361 111.463 65.8246 112.69 65.3783C117.934 63.4817 122.397 61.4734 126.079 59.3537C129.761 57.2339 132.327 55.2257 133.778 53.3291C134.67 52.2134 135.005 51.3209 135.005 50.4283C135.005 49.6474 134.67 48.978 134.113 48.4201C133.555 47.8623 132.439 47.6392 130.989 47.6392Z"
                fill="white" />
        </mask>
        <g mask="url(#mask2_10188_871)">
            <path d="M67.6143 118.484L179.3 126.07L184.656 47.8619L72.9698 40.2754L67.6143 118.484Z" fill="black" />
        </g>
        <mask id="mask3_10188_871" style="mask-type:luminance" maskUnits="userSpaceOnUse" x="87" y="48" width="25"
            height="15">
            <path
                d="M92.8297 54.4441C92.8297 54.3325 92.9413 54.2209 93.1644 53.9978C93.4991 53.6631 93.8339 53.3284 94.3917 52.9937C94.838 52.659 95.2843 52.3243 95.6191 52.2127C95.9538 51.9896 96.1769 51.878 96.2885 51.878H96.4001C96.4001 51.878 96.4001 51.878 96.4001 51.9896C96.4001 52.1012 96.2885 52.2127 96.0654 52.4359C95.8422 52.659 95.5075 52.9937 95.0612 53.3284C94.6149 53.6631 94.1686 53.8862 93.7223 54.1094C93.3876 54.3325 93.0528 54.4441 92.8297 54.4441ZM95.1728 49.0889C94.1686 49.312 92.7181 50.3161 90.9329 52.1012C88.813 54.5556 87.6973 56.787 87.6973 58.9067C87.6973 60.8034 88.5899 62.0306 90.4866 62.7C90.9329 62.8116 91.4908 62.9231 92.0487 62.9231C93.9454 62.9231 96.4001 62.1422 99.301 60.5802C100.751 59.7993 102.202 58.7952 103.876 57.7911L105.438 56.787C108.004 55.1135 109.677 53.8862 110.458 53.1053C111.016 52.5474 111.351 51.9896 111.351 51.5433C111.351 51.4318 111.351 51.3202 111.239 51.2086C111.016 50.6508 110.682 50.3161 110.235 50.3161C109.677 50.3161 108.896 50.6508 107.892 51.4318L107.111 51.9896C104.21 53.9978 101.644 55.6713 99.4126 57.1217C96.0654 59.1299 93.6107 60.134 91.9371 60.134C91.0445 60.134 90.5982 59.6877 90.5982 58.9067C90.5982 58.2373 90.7098 57.7911 90.8214 57.5679C90.9329 57.3448 91.2676 57.2332 91.7139 57.2332C93.7223 57.2332 95.6191 56.4523 97.4043 55.0019C98.8547 53.7747 99.5242 52.5474 99.5242 51.2086L99.4126 50.5392C98.9663 49.4236 98.0737 48.8657 96.958 48.8657C96.7348 48.8657 96.0654 48.9773 95.1728 49.0889Z"
                fill="white" />
        </mask>
        <g mask="url(#mask3_10188_871)">
            <path d="M86.6934 62.8125L111.128 64.486L112.244 48.9782L87.8091 47.3047L86.6934 62.8125Z" fill="black" />
        </g>
    </g>
    <defs>
        <clipPath id="clip0_10188_871">
            <rect width="214" height="136" fill="white" />
        </clipPath>
    </defs>
</svg>