<svg width="290" height="80" viewBox="0 0 290 80" fill="none" xmlns="http://www.w3.org/2000/svg">
    <g clip-path="url(#clip0_10206_26098)">
        <path fill-rule="evenodd" clip-rule="evenodd"
            d="M122.461 51.5833C121.87 51.7145 121.542 51.977 121.411 52.3052C121.345 52.6333 121.477 52.8958 122.002 52.9614H122.199H122.461C122.542 52.9209 122.623 52.9054 122.735 52.884C122.805 52.8708 122.886 52.8553 122.986 52.8302C123.314 52.7646 123.642 52.6989 124.036 52.5677C124.482 52.512 124.88 52.409 125.151 52.339C125.199 52.3265 125.243 52.3151 125.283 52.3052C125.339 52.2771 125.392 52.2521 125.442 52.2287C125.624 52.1429 125.757 52.0802 125.808 51.977C125.874 51.9114 125.874 51.7145 125.874 51.5176C125.808 51.3208 125.743 51.1239 125.546 51.0583C125.349 50.9926 125.021 50.9926 124.561 51.0583C124.371 51.1126 124.136 51.167 123.86 51.2307C123.47 51.3208 122.999 51.4295 122.461 51.5833ZM111.96 53.6322L112.354 53.552C115.832 52.8301 117.736 52.502 117.998 52.502C118.326 52.6332 118.457 52.8301 118.523 53.0926C118.589 53.4207 118.457 53.6176 118.129 53.8145C118.064 53.8801 117.604 54.0114 116.686 54.2083C116.428 54.2635 116.123 54.3292 115.771 54.4051C114.867 54.5998 113.649 54.8623 112.092 55.1927L111.749 55.2653C109.606 55.7201 106.642 56.349 102.969 57.0959C102.334 57.2305 101.715 57.3616 101.111 57.4894C96.4195 58.4831 92.7007 59.2707 89.9095 59.8522C88.4406 60.1582 87.143 60.4357 86.01 60.678C84.713 60.9553 83.6317 61.1865 82.7561 61.3617C81.1154 61.6898 79.8685 61.9523 79.0153 62.1492C78.6511 62.2332 78.275 62.3292 77.892 62.427C77.3778 62.5582 76.8512 62.6926 76.3246 62.8055C75.6733 62.9627 75.0604 63.1045 74.4912 63.2363C73.3972 63.4895 72.4645 63.7053 71.7306 63.9212C71.1496 64.092 70.5508 64.2807 69.9248 64.478C69.3489 64.6594 68.7501 64.8481 68.1211 65.0368L65.7585 65.8244C65.1679 66.0212 64.6429 66.2181 64.1178 66.4806C63.7898 66.6119 63.5929 66.6775 63.3961 66.7431L63.3959 66.7431C63.1991 66.8088 63.0678 66.8088 63.0022 66.8088C62.9365 66.8088 62.8709 66.8088 62.8053 66.7431C62.4115 66.5462 62.2803 66.3494 62.4115 66.0212C62.5428 65.6931 62.9365 65.4306 63.5272 65.1681C65.1023 64.4462 66.8742 63.7899 68.7774 63.1992C70.6806 62.6086 73.1744 61.9523 76.3246 61.2304C78.2934 60.771 81.4435 60.0491 85.8406 59.1303C90.2376 58.2116 94.8972 57.2271 99.7536 56.1771C104.431 55.1657 108.5 54.3369 111.96 53.6322Z"
            fill="url(#paint0_linear_10206_26098)" />
        <path fill-rule="evenodd" clip-rule="evenodd"
            d="M60.1153 4.13463C59.9841 4.26588 59.7215 4.65965 59.1965 6.89098C57.6215 13.1256 55.9152 18.2446 54.0776 22.2478C52.24 26.1855 49.7462 30.1231 46.6617 33.8639C43.4459 37.8016 40.2958 41.0173 37.2113 43.2487C32.7486 46.53 28.9422 48.1707 25.8577 48.1707C23.8889 48.1707 22.5107 47.5144 21.6576 46.1363C21.1982 45.4144 20.9357 44.43 20.9357 43.3143C20.9357 42.3299 21.1982 40.8204 21.7232 38.8516C22.2482 36.8172 23.9545 33.7983 26.7109 29.795C27.1703 29.1387 27.3672 28.6137 27.3672 28.2856C27.3672 28.0887 27.3015 27.6293 26.6453 27.6293C26.514 27.6293 26.3827 27.6949 26.1859 27.8262C25.9234 28.0231 25.5952 28.2856 25.2015 28.6793L20.8044 32.9451L18.1793 35.5702C13.7823 39.9016 10.5665 42.9861 8.6633 44.6268C6.30071 46.6613 5.3163 47.055 4.85691 47.055C4.79128 47.055 4.79128 46.7925 4.79128 46.7269C4.79128 45.8081 5.3163 44.2331 6.30071 42.133C8.26954 38.0641 11.2228 33.4701 15.0948 28.6793C18.9668 23.8229 22.9701 19.6227 26.9734 16.2101C27.564 15.6851 27.8266 15.3569 27.8266 15.0944C27.8266 14.9632 27.7609 14.7663 27.564 14.635C27.4328 14.5038 27.3015 14.4382 27.1046 14.4382H26.9078C26.7765 14.4382 26.5796 14.5038 24.7421 16.0788C20.6731 19.6227 16.8011 23.7573 13.1916 28.4168C9.58209 33.0764 6.82573 37.3422 4.92253 41.0829C3.67561 43.5768 3.08496 45.48 3.08496 46.8582C3.08496 48.0395 3.67561 48.6957 4.79128 48.7614C5.44755 48.7614 6.30071 48.3676 7.48201 47.6457C8.53205 46.9238 10.1727 45.5456 12.3384 43.5112C14.5042 41.4767 17.4574 38.5891 21.1982 34.914L21.9201 34.192L22.2482 33.8639C20.2794 37.4734 19.295 40.6892 19.295 43.4455C19.295 45.2831 19.7544 46.7925 20.6731 47.9082C21.5263 48.9583 22.7732 49.6145 24.4139 49.8114C24.742 49.877 25.1358 49.877 25.4639 49.877H25.464C27.8266 49.877 30.4517 49.1551 33.208 47.6457C37.08 45.6112 41.0177 42.4611 44.8897 38.3922C48.7617 34.3233 52.1088 29.5981 54.8651 24.2823C56.8996 20.5415 58.934 14.7007 60.9028 6.75973C61.1654 5.77532 61.2966 5.11904 61.2966 4.7909C61.3622 4.26588 61.0341 3.93774 60.5747 3.93774C60.4435 3.93774 60.3122 4.00337 60.1153 4.13463ZM79.7378 50.0082C79.7378 49.8769 79.8034 49.6144 79.9347 49.2863C80.3284 48.4331 80.9191 47.58 81.7066 46.7924C82.2973 46.2018 82.9535 45.6768 83.6098 45.2174C84.3973 44.6924 84.988 44.4298 85.4474 44.4298C85.7755 44.4298 85.9724 44.5611 86.038 44.9549C86.038 45.1517 85.3161 45.8736 83.8723 47.1206C82.4285 48.4331 81.3785 49.2863 80.7222 49.68C80.2628 50.0082 79.9347 50.1394 79.8034 50.1394C79.7378 50.0738 79.7378 50.0738 79.7378 50.0082ZM77.047 28.0229C74.1594 28.0229 70.2218 29.7949 65.3653 33.1419C62.1496 35.4389 59.0651 38.1296 56.2431 41.1485C53.4211 44.1673 50.9929 47.3175 48.8272 50.4676C46.7271 53.6177 45.0864 56.6366 44.0364 59.4585C43.1176 61.8211 42.6582 63.9212 42.6582 65.6275C42.6582 65.8901 42.7238 66.5463 42.8551 67.662C42.9863 68.7777 44.0364 69.4996 45.9396 69.8277C46.0309 69.8277 46.1363 69.8418 46.2493 69.857L46.2495 69.857C46.3801 69.8745 46.5208 69.8933 46.6615 69.8933H46.7271C48.9584 69.8933 51.9773 68.8433 55.8493 66.9401C58.1463 65.7588 60.837 64.1181 63.9215 62.0837C67.006 59.9836 71.6 56.7022 77.5721 52.1739C77.8923 51.9452 78.1487 51.7483 78.3636 51.5834L78.3639 51.5832C78.4572 51.5116 78.5426 51.446 78.6221 51.3864C78.8846 51.5832 79.1471 51.6489 79.6065 51.6489C80.5253 51.5832 81.641 51.0582 82.9535 50.0738C82.9863 50.041 83.0684 49.9754 83.1915 49.8769C83.3145 49.7784 83.4786 49.6472 83.6754 49.4832L84.0036 49.2863C84.0036 49.2863 84.0692 49.3519 84.0692 49.4832V50.0082C84.1348 51.1238 84.6598 51.8458 85.5786 52.1739C85.7755 52.2395 85.9724 52.2395 86.2349 52.2395C86.7599 52.2395 87.3506 52.0426 88.0725 51.7801C88.1035 51.7646 88.1381 51.7491 88.1747 51.7328C88.293 51.6799 88.4316 51.6179 88.5319 51.5176C88.6631 51.5832 88.7944 51.6489 88.9256 51.6489H89.1225C89.2538 51.6489 89.8444 51.0583 90.8944 50.0083L90.8945 50.0082C92.0101 49.2206 93.0602 48.3675 94.1102 47.4487L94.5696 47.1206C94.7542 46.9667 94.91 46.8273 95.0572 46.6956L95.0572 46.6955C95.224 46.5462 95.3797 46.4068 95.554 46.2674C95.554 46.333 95.5376 46.3987 95.5212 46.4643C95.5048 46.5299 95.4884 46.5956 95.4884 46.6612C95.4556 46.7596 95.4392 46.8581 95.4228 46.9565C95.4064 47.0549 95.39 47.1534 95.3571 47.2518C95.2259 48.105 95.1603 48.7613 95.1603 49.2863C95.2259 50.5332 95.6853 51.1895 96.6697 51.1239C98.2448 51.0582 101.067 49.2206 105.07 45.5455C105.595 45.0205 105.858 44.6267 105.858 44.3642L105.792 44.1673C105.661 43.8392 105.464 43.7079 105.201 43.7079C104.873 43.7079 104.479 43.9704 104.02 44.3642C103.078 45.1496 102.093 45.935 101.067 46.7537L101.067 46.7538C100.807 46.9612 100.545 47.1708 100.279 47.3831C98.5073 48.7613 97.326 49.4832 96.8666 49.4832C96.7353 49.4832 96.6697 49.4175 96.6697 49.2206C96.6697 48.8925 96.7353 48.3675 96.8666 47.58C97.0635 46.7924 97.1291 46.1362 97.0634 45.5455C96.9978 44.4955 96.6697 44.0361 95.9478 44.0361C95.029 44.1017 93.5196 45.0861 91.3539 47.1206C91.3539 47.0549 91.4851 46.6612 91.8132 45.9393C92.207 45.2174 92.4039 44.6267 92.4039 44.2986C92.4039 43.9704 92.1414 43.7736 91.682 43.7736C91.4851 43.7736 91.3539 43.8392 91.2882 44.0361C91.0913 44.3642 90.7632 44.9549 90.3694 45.808L89.385 47.8425C89.0569 48.4987 88.7944 49.0894 88.5975 49.5488C87.6131 50.2051 86.8256 50.5332 86.3662 50.5332C85.9068 50.5332 85.6443 50.3363 85.6443 49.8769C85.6443 49.8113 85.6443 49.4832 85.7099 49.0238C85.7755 48.5644 86.3662 47.58 87.5475 46.0705C88.0068 45.5455 88.2037 45.1517 88.2037 44.8236C88.2037 44.5611 88.0069 44.3642 87.7443 44.2986C87.6787 44.2986 87.6131 44.233 87.5475 44.1673C87.4818 44.1017 87.4162 44.0361 87.3506 43.9048C86.8912 43.2485 86.2349 42.986 85.3818 42.986C83.8067 43.0517 82.2316 43.9704 80.5253 45.6768C79.2128 47.2518 78.4252 48.5644 78.294 49.6144C78.1499 49.7009 77.9426 49.8505 77.6554 50.0579L77.6553 50.058C77.2883 50.3229 76.7909 50.6821 76.1283 51.1239C68.253 56.9647 62.4777 61.0336 58.6713 63.3962C54.8649 65.7588 51.7148 67.2026 49.1553 67.7933C48.3678 67.9901 47.6459 68.1214 46.9896 68.1214C46.0052 68.1214 45.2833 67.9245 44.8239 67.4651C44.3645 67.0057 44.102 66.2838 44.102 65.2994C44.102 65.2338 44.102 64.3806 44.1676 63.0024C44.1676 61.6243 46.0708 57.9491 49.6804 52.1739C52.3055 48.1706 55.3243 44.3642 58.737 40.9516C62.1496 37.5389 65.5622 34.717 68.9092 32.6169C72.125 30.6481 74.8157 29.598 76.9814 29.598C77.6377 29.598 77.8346 29.7293 77.9002 29.7949C77.938 29.8326 77.954 29.8487 77.9608 29.868C77.9658 29.8822 77.9658 29.8983 77.9658 29.9261C77.9658 29.9918 77.9002 30.3199 77.047 31.1074C76.4564 31.6981 75.0126 32.6169 72.8469 33.7982C70.6812 34.9795 68.1217 36.1608 65.2997 37.2764C64.7747 37.5389 64.5122 37.8015 64.5122 38.1296C64.5122 38.3265 64.5778 38.4577 64.7091 38.589C64.8403 38.7202 65.0372 38.7859 65.1685 38.7859C65.2997 38.7859 65.5622 38.7202 66.2841 38.4577C69.3686 37.3421 71.9937 36.1608 74.1594 34.9138C76.3251 33.6669 77.8346 32.4856 78.6877 31.37C79.2128 30.7137 79.4096 30.1887 79.4096 29.6636C79.4096 29.2042 79.2128 28.8105 78.8846 28.4823C78.5565 28.1542 77.9002 28.0229 77.047 28.0229ZM54.7988 31.7637C54.6675 31.895 54.6019 31.9606 54.6019 32.0263C54.7331 32.0263 54.93 31.9606 55.1269 31.8294C55.3894 31.6981 55.6519 31.5669 55.9144 31.37C56.1769 31.1731 56.3738 30.9762 56.5051 30.845C56.6363 30.7137 56.702 30.6481 56.702 30.5824V30.5168H56.6363C56.5707 30.5168 56.4394 30.5824 56.2426 30.7137C56.0457 30.7793 55.7832 30.9762 55.5207 31.1731L55.5207 31.1731C55.1925 31.37 54.9957 31.5668 54.7988 31.7637L54.7988 31.7637ZM53.4862 30.6481C54.5362 29.598 55.3894 29.0074 55.9801 28.8761C56.1806 28.8511 56.362 28.826 56.5169 28.8046C56.7676 28.7699 56.949 28.7449 57.0301 28.7449C57.6864 28.7449 58.2114 29.073 58.4739 29.7293L58.5395 30.1231C58.5395 30.9106 58.1458 31.6325 57.2926 32.3544C56.2426 33.2075 55.1269 33.6669 53.9456 33.6669C53.6831 33.6669 53.4862 33.7326 53.4206 33.8638C53.355 33.9951 53.2893 34.2576 53.2893 34.6514C53.2893 35.1107 53.5518 35.3733 54.0769 35.3733C55.0613 35.3733 56.5051 34.7826 58.4739 33.6013C59.7865 32.7482 61.2959 31.7637 63.0022 30.5824L63.4616 30.2543C64.0522 29.7949 64.5116 29.598 64.8398 29.598C65.1023 29.598 65.2992 29.7949 65.4304 30.1231C65.496 30.1887 65.4961 30.2543 65.4961 30.3199C65.4961 30.5824 65.2992 30.9106 64.971 31.2387C64.5116 31.6981 63.5272 32.42 62.0178 33.4044L61.099 33.9951C60.7175 34.224 60.3557 34.4529 60.006 34.6741C59.4534 35.0238 58.9308 35.3544 58.4083 35.6358C56.702 36.5546 55.2582 37.0139 54.1425 37.0139C53.8143 37.0139 53.4862 36.9483 53.2237 36.8827C52.108 36.4889 51.583 35.767 51.583 34.6514C51.583 33.4044 52.2393 32.0919 53.4862 30.6481Z"
            fill="url(#paint1_linear_10206_26098)" />
    </g>
    <path
        d="M158.474 44.72V54H153.034V45.96L150.634 43.28H141.914V54H136.474V26H154.034L158.314 30.32V38.8L155.594 41.56L158.474 44.72ZM141.914 38.8H151.554L152.954 37.4V31.96L151.554 30.56H141.914V38.8ZM165.066 26H185.306V30.6H170.506V37.68H184.146V42.2H170.506V49.4H185.306V54H165.066V26ZM190.924 26H195.804L208.284 45H208.364V26H213.604V54H208.724L196.244 35.04H196.164V54H190.924V26ZM226.775 30.6H218.415V26H240.575V30.6H232.215V54H226.775V30.6ZM249.62 26H254.58L264.82 54H259.3L257.02 47.8H247.18L244.9 54H239.38L249.62 26ZM255.82 43.32L252.1 32.68H252.02L248.42 43.32H255.82ZM269.24 26H274.68V49.4H288.68V54H269.24V26Z"
        fill="url(#paint2_linear_10206_26098)" />
    <defs>
        <linearGradient id="paint0_linear_10206_26098" x1="65.1644" y1="61.6872" x2="114.706" y2="29.622"
            gradientUnits="userSpaceOnUse">
            <stop stop-color="#1DA89F" />
            <stop offset="1" stop-color="#025E33" />
        </linearGradient>
        <linearGradient id="paint1_linear_10206_26098" x1="4.94109" y1="34.3223" x2="160.064" y2="48.1171"
            gradientUnits="userSpaceOnUse">
            <stop stop-color="#AFA38E" />
            <stop offset="0.4725" stop-color="#E0D8BF" />
            <stop offset="1" stop-color="#A79C86" />
        </linearGradient>
        <linearGradient id="paint2_linear_10206_26098" x1="140.757" y1="50.5508" x2="287.672" y2="-10.9532"
            gradientUnits="userSpaceOnUse">
            <stop stop-color="#88D0CB" />
            <stop offset="1" stop-color="#025E33" />
        </linearGradient>
        <clipPath id="clip0_10206_26098">
            <rect width="125.874" height="80" fill="white" />
        </clipPath>
    </defs>
</svg>