<svg xmlns="http://www.w3.org/2000/svg" width="20" height="20" viewBox="0 0 20 20" fill="none">
    <path
        d="M11.6673 1.89136V5.33348C11.6673 5.80018 11.6673 6.03354 11.7581 6.2118C11.838 6.3686 11.9655 6.49609 12.1223 6.57598C12.3006 6.66681 12.5339 6.66681 13.0007 6.66681H16.4428M11.6673 14.1667H6.66732M13.334 10.8334H6.66732M16.6673 8.3236V14.3334C16.6673 15.7335 16.6673 16.4336 16.3948 16.9684C16.1552 17.4388 15.7727 17.8212 15.3023 18.0609C14.7675 18.3334 14.0674 18.3334 12.6673 18.3334H7.33398C5.93385 18.3334 5.23379 18.3334 4.69901 18.0609C4.2286 17.8212 3.84615 17.4388 3.60647 16.9684C3.33398 16.4336 3.33398 15.7335 3.33398 14.3334V5.66675C3.33398 4.26662 3.33398 3.56655 3.60647 3.03177C3.84615 2.56137 4.2286 2.17892 4.69901 1.93923C5.23379 1.66675 5.93385 1.66675 7.33398 1.66675H10.0105C10.6219 1.66675 10.9277 1.66675 11.2154 1.73582C11.4705 1.79707 11.7143 1.89808 11.938 2.03515C12.1903 2.18975 12.4065 2.40594 12.8389 2.83832L15.4957 5.49517C15.9281 5.92755 16.1443 6.14374 16.2989 6.39604C16.436 6.61972 16.537 6.86358 16.5982 7.11867C16.6673 7.40639 16.6673 7.71213 16.6673 8.3236Z"
        stroke="white" stroke-width="1.5" stroke-linecap="round" stroke-linejoin="round" />
</svg>