<svg width="24" height="25" viewBox="0 0 24 25" fill="none" xmlns="http://www.w3.org/2000/svg">
<g clip-path="url(#clip0_12115_1177)">
<path d="M9.101 24.1909V16.2109H6.627V12.5439H9.101V10.9639C9.101 6.87895 10.949 4.98595 14.959 4.98595C15.36 4.98595 15.914 5.02795 16.427 5.08895C16.8112 5.12848 17.1924 5.19363 17.568 5.28395V8.60895C17.3509 8.58869 17.133 8.57668 16.915 8.57295C16.6707 8.5666 16.4264 8.5636 16.182 8.56395C15.475 8.56395 14.923 8.65995 14.507 8.87295C14.2273 9.01326 13.9922 9.22862 13.828 9.49495C13.57 9.91495 13.454 10.4899 13.454 11.2469V12.5439H17.373L16.987 14.6469L16.7 16.2109H13.454V24.4559C19.396 23.7379 24 18.6789 24 12.5439C24 5.91695 18.627 0.543945 12 0.543945C5.373 0.543945 0 5.91695 0 12.5439C0 18.1719 3.874 22.8939 9.101 24.1909Z" fill="#D0D5DD"/>
</g>
<defs>
<clipPath id="clip0_12115_1177">
<rect width="24" height="24" fill="white" transform="translate(0 0.5)"/>
</clipPath>
</defs>
</svg>
