<svg width="33" height="32" viewBox="0 0 33 32" fill="none" xmlns="http://www.w3.org/2000/svg">
    <g clip-path="url(#clip0_10573_2951)">
        <path
            d="M32.0264 16C32.0264 7.16344 24.8629 0 16.0264 0C7.18981 0 0.0263672 7.16344 0.0263672 16C0.0263672 23.9859 5.8773 30.6053 13.5264 31.8056V20.625H9.46387V16H13.5264V12.475C13.5264 8.465 15.9151 6.25 19.5698 6.25C21.3198 6.25 23.1514 6.5625 23.1514 6.5625V10.5H21.1339C19.1464 10.5 18.5264 11.7334 18.5264 13V16H22.9639L22.2545 20.625H18.5264V31.8056C26.1754 30.6053 32.0264 23.9859 32.0264 16Z"
            fill="white" />
    </g>
    <defs>
        <clipPath id="clip0_10573_2951">
            <rect width="32" height="32" fill="white" transform="translate(0.0263672)" />
        </clipPath>
    </defs>
</svg>