<svg width="24" height="25" viewBox="0 0 24 25" fill="none" xmlns="http://www.w3.org/2000/svg">
<path d="M11.8626 17.2056C14.5114 17.2056 16.6588 15.0583 16.6588 12.4095C16.6588 9.76061 14.5114 7.61328 11.8626 7.61328C9.21373 7.61328 7.06641 9.76061 7.06641 12.4095C7.06641 15.0583 9.21373 17.2056 11.8626 17.2056Z" fill="#D0D5DD"/>
<path d="M7.24121 1.2002C3.53521 1.2002 0.517578 4.21783 0.517578 7.92383V17.0747C0.517578 20.7807 3.53521 23.7982 7.24121 23.7982H16.4848C20.1908 23.7982 23.2083 20.7809 23.2083 17.0747V7.92383C23.2083 4.21783 20.191 1.2002 16.4848 1.2002H7.24121ZM7.24121 3.37456H16.4848C19.0239 3.37456 21.0339 5.38492 21.0339 7.92383V17.0747C21.0339 19.6138 19.0239 21.6238 16.4848 21.6238H7.24121C4.70212 21.6238 2.69194 19.6138 2.69194 17.0747V7.92383C2.69194 5.38474 4.70231 3.37456 7.24121 3.37456Z" fill="#D0D5DD"/>
<path d="M17.9662 7.87957C18.7187 7.87957 19.3288 7.2695 19.3288 6.51693C19.3288 5.76437 18.7187 5.1543 17.9662 5.1543C17.2136 5.1543 16.6035 5.76437 16.6035 6.51693C16.6035 7.2695 17.2136 7.87957 17.9662 7.87957Z" fill="#D0D5DD"/>
</svg>
