<svg xmlns="http://www.w3.org/2000/svg" width="33" height="32" viewBox="0 0 33 32" fill="none">
    <g clip-path="url(#clip0_10543_4179)">
        <path
            d="M26.3067 0H7.64006C3.95872 0 0.973389 2.98533 0.973389 6.66667V25.3333C0.973389 29.0147 3.95872 32 7.64006 32H26.3067C29.9894 32 32.9734 29.0147 32.9734 25.3333V6.66667C32.9734 2.98533 29.9894 0 26.3067 0ZM11.6401 25.3333H7.64006V10.6667H11.6401V25.3333ZM9.64006 8.976C8.35206 8.976 7.30672 7.92267 7.30672 6.624C7.30672 5.32533 8.35206 4.272 9.64006 4.272C10.9281 4.272 11.9734 5.32533 11.9734 6.624C11.9734 7.92267 10.9294 8.976 9.64006 8.976ZM27.6401 25.3333H23.6401V17.8613C23.6401 13.3707 18.3067 13.7107 18.3067 17.8613V25.3333H14.3067V10.6667H18.3067V13.02C20.1681 9.572 27.6401 9.31733 27.6401 16.3213V25.3333Z"
            fill="#1E1E1E" />
    </g>
    <defs>
        <clipPath id="clip0_10543_4179">
            <rect width="32" height="32" fill="white" transform="translate(0.973389)" />
        </clipPath>
    </defs>
</svg>