<svg width="24" height="25" viewBox="0 0 24 25" fill="none" xmlns="http://www.w3.org/2000/svg">
<rect y="0.5" width="24" height="24" rx="12" fill="#D0D5DD"/>
<g clip-path="url(#clip0_12115_1184)">
<path fill-rule="evenodd" clip-rule="evenodd" d="M12.3437 11.0022V10.6828H13.3007V15.1749H12.7532C12.5278 15.1749 12.3449 14.9928 12.3437 14.7678C12.3436 14.768 12.3434 14.768 12.3433 14.7681C11.9579 15.0499 11.4814 15.2174 10.9668 15.2174C9.678 15.2174 8.63299 14.173 8.63299 12.885C8.63299 11.597 9.678 10.5528 10.9668 10.5528C11.4814 10.5528 11.9579 10.7201 12.3433 11.0019C12.3434 11.0021 12.3436 11.0021 12.3437 11.0022ZM8.38506 9.23828V9.38384C8.38506 9.65555 8.34871 9.87723 8.17226 10.1375L8.15094 10.1618C8.1124 10.2055 8.02192 10.3082 7.97886 10.3638L4.90697 14.2195H8.38506V14.7654C8.38506 14.9916 8.20151 15.1749 7.97531 15.1749H3.46875V14.9175C3.46875 14.6022 3.54706 14.4617 3.64602 14.3152L6.92087 10.2618H3.60529V9.23828H8.38506ZM14.4613 15.1749C14.2731 15.1749 14.12 15.0219 14.12 14.834V9.23828H15.1443V15.1749H14.4613ZM18.1729 10.5247C19.4706 10.5247 20.5224 11.5768 20.5224 12.8726C20.5224 14.1696 19.4706 15.2217 18.1729 15.2217C16.875 15.2217 15.8233 14.1696 15.8233 12.8726C15.8233 11.5768 16.875 10.5247 18.1729 10.5247ZM10.9668 14.2572C11.7252 14.2572 12.3399 13.643 12.3399 12.885C12.3399 12.1283 11.7252 11.5139 10.9668 11.5139C10.2084 11.5139 9.59367 12.1283 9.59367 12.885C9.59367 13.643 10.2084 14.2572 10.9668 14.2572ZM18.1729 14.2549C18.9358 14.2549 19.5549 13.6362 19.5549 12.8726C19.5549 12.1102 18.9358 11.4915 18.1729 11.4915C17.4087 11.4915 16.7907 12.1102 16.7907 12.8726C16.7907 13.6362 17.4087 14.2549 18.1729 14.2549Z" fill="black"/>
</g>
<defs>
<clipPath id="clip0_12115_1184">
<rect width="17.1429" height="6" fill="white" transform="translate(3.42871 9.22949)"/>
</clipPath>
</defs>
</svg>
